<svg xmlns="http://www.w3.org/2000/svg" viewBox="0 0 1200 760" fill="none">
  <rect width="1200" height="760" rx="40" fill="#08131E"/>
  <rect x="42" y="42" width="1116" height="676" rx="30" fill="#102233"/>
  <rect x="84" y="90" width="1032" height="120" rx="24" fill="#132B3F"/>
  <rect x="84" y="238" width="700" height="434" rx="28" fill="#0B1622"/>
  <rect x="810" y="238" width="306" height="208" rx="24" fill="#17334A"/>
  <rect x="810" y="464" width="306" height="208" rx="24" fill="#112739"/>
  <rect x="130" y="284" width="608" height="342" rx="22" fill="#0F1E2C"/>
  <path d="M170 556L286 470L414 520L574 394L698 460" stroke="#7CD6C1" stroke-width="8" stroke-linecap="round"/>
  <circle cx="286" cy="470" r="18" fill="#D95D39"/>
  <circle cx="414" cy="520" r="18" fill="#D95D39"/>
  <circle cx="574" cy="394" r="18" fill="#D95D39"/>
  <circle cx="698" cy="460" r="18" fill="#D95D39"/>
  <rect x="860" y="286" width="146" height="16" rx="8" fill="#F3E9DA"/>
  <rect x="860" y="322" width="194" height="12" rx="6" fill="#F3E9DA" fill-opacity=".55"/>
  <rect x="860" y="356" width="160" height="12" rx="6" fill="#F3E9DA" fill-opacity=".35"/>
  <rect x="860" y="510" width="176" height="16" rx="8" fill="#F3E9DA"/>
  <rect x="860" y="546" width="210" height="12" rx="6" fill="#F3E9DA" fill-opacity=".55"/>
  <rect x="860" y="580" width="170" height="12" rx="6" fill="#F3E9DA" fill-opacity=".35"/>
  <circle cx="146" cy="150" r="12" fill="#D95D39"/>
  <rect x="176" y="140" width="210" height="20" rx="10" fill="#E4D1B8" fill-opacity=".42"/>
  <rect x="176" y="172" width="280" height="12" rx="6" fill="#E4D1B8" fill-opacity=".22"/>
  <text x="122" y="646" fill="#F3E9DA" font-family="Arial, sans-serif" font-size="34" font-weight="700">AbyssalVTT</text>
</svg>
